<?xml version="1.0" encoding="UTF-8"?>
<svg id="Calque_2" data-name="Calque 2" xmlns="http://www.w3.org/2000/svg" viewBox="0 0 498.65 79.33">
  <defs>
    <style>
      .cls-1 {
        fill: #1d1d1b;
        stroke-width: 0px;
      }
    </style>
  </defs>
  <g id="Calque_2-2" data-name="Calque 2">
    <g>
      <path class="cls-1" d="M24.85,3.82h6.93l24.13,56.39h-8.92l-5.65-13.94H14.5l-5.58,13.94H0L24.85,3.82ZM38.55,39.58l-10.51-25.88h-.16l-10.67,25.88h21.35Z"/>
      <path class="cls-1" d="M61.41,22.46h7.17v5.81h.16c.9-2.02,2.47-3.65,4.7-4.9,2.23-1.25,4.8-1.87,7.73-1.87,1.8,0,3.54.28,5.22.84,1.67.56,3.13,1.42,4.38,2.59,1.25,1.17,2.24,2.67,2.99,4.5.74,1.83,1.12,4,1.12,6.49v24.29h-7.17v-22.3c0-1.75-.24-3.25-.72-4.5-.48-1.25-1.12-2.26-1.91-3.03-.8-.77-1.71-1.33-2.75-1.67-1.04-.34-2.11-.52-3.23-.52-1.49,0-2.87.24-4.14.72-1.27.48-2.39,1.23-3.35,2.27-.96,1.04-1.7,2.35-2.23,3.94-.53,1.59-.8,3.48-.8,5.65v19.43h-7.17V22.46Z"/>
      <path class="cls-1" d="M101.23,22.46h8.28l11.18,29.47h.16l10.72-29.47h7.65l-17.92,45.88c-.63,1.65-1.3,3.15-1.98,4.5-.69,1.35-1.51,2.51-2.46,3.46-.95.96-2.1,1.7-3.45,2.23-1.35.53-3,.8-4.96.8-1.06,0-2.13-.07-3.21-.2-1.08-.13-2.13-.41-3.13-.84l.87-6.53c1.42.58,2.85.88,4.27.88,1.11,0,2.04-.15,2.81-.44.76-.29,1.42-.72,1.98-1.27.55-.56,1.02-1.21,1.39-1.95.37-.74.74-1.59,1.11-2.55l2.32-5.97-15.62-37.99Z"/>
      <path class="cls-1" d="M140.97,22.46h8.04l8.48,28.19h.16l9.04-28.19h7.65l9.56,28.19h.16l8.04-28.19h7.65l-12.19,37.75h-7.25l-10-28.19h-.16l-9.11,28.19h-7.65l-12.42-37.75Z"/>
      <path class="cls-1" d="M201.42,22.46h8.04l8.48,28.19h.16l9.04-28.19h7.65l9.56,28.19h.16l8.04-28.19h7.65l-12.19,37.75h-7.25l-10-28.19h-.16l-9.11,28.19h-7.65l-12.42-37.75Z"/>
      <path class="cls-1" d="M261.87,22.46h8.04l8.48,28.19h.16l9.04-28.19h7.65l9.56,28.19h.16l8.04-28.19h7.65l-12.19,37.75h-7.25l-10-28.19h-.16l-9.11,28.19h-7.65l-12.42-37.75Z"/>
      <path class="cls-1" d="M326.86,0h7.17v28.27h.16c.9-2.02,2.47-3.65,4.7-4.9,2.23-1.25,4.8-1.87,7.73-1.87,1.8,0,3.54.28,5.22.84,1.67.56,3.13,1.42,4.38,2.59,1.25,1.17,2.24,2.67,2.99,4.5.74,1.83,1.11,4,1.11,6.49v24.29h-7.17v-22.3c0-1.75-.24-3.25-.72-4.5-.48-1.25-1.11-2.26-1.91-3.03-.8-.77-1.71-1.33-2.75-1.67-1.04-.34-2.11-.52-3.23-.52-1.49,0-2.87.24-4.14.72-1.27.48-2.39,1.23-3.34,2.27-.96,1.04-1.7,2.35-2.23,3.94-.53,1.59-.8,3.48-.8,5.65v19.43h-7.17V0Z"/>
      <path class="cls-1" d="M376.56,43.96c0,1.65.36,3.15,1.08,4.5s1.66,2.51,2.83,3.46c1.17.96,2.52,1.7,4.06,2.23,1.54.53,3.13.8,4.78.8,2.23,0,4.17-.52,5.81-1.55,1.65-1.04,3.16-2.4,4.54-4.1l5.42,4.14c-3.98,5.15-9.56,7.73-16.73,7.73-2.97,0-5.67-.5-8.08-1.51-2.42-1.01-4.46-2.4-6.13-4.18-1.67-1.78-2.96-3.88-3.86-6.29-.9-2.42-1.35-5.03-1.35-7.85s.49-5.43,1.47-7.84c.98-2.42,2.34-4.51,4.06-6.29,1.73-1.78,3.78-3.17,6.17-4.18,2.39-1.01,4.99-1.51,7.81-1.51,3.34,0,6.17.58,8.48,1.75,2.31,1.17,4.21,2.7,5.7,4.58,1.49,1.89,2.56,4.01,3.23,6.37.66,2.36,1,4.77,1,7.21v2.55h-30.26ZM399.18,38.23c-.05-1.59-.31-3.05-.76-4.38-.45-1.33-1.13-2.48-2.03-3.46-.9-.98-2.03-1.75-3.38-2.31-1.35-.56-2.93-.84-4.74-.84s-3.36.33-4.82,1c-1.46.66-2.7,1.53-3.7,2.59-1.01,1.06-1.79,2.24-2.35,3.54-.56,1.3-.84,2.59-.84,3.86h22.62Z"/>
      <path class="cls-1" d="M415.42,22.46h7.17v5.81h.16c.48-1.01,1.12-1.92,1.91-2.75.8-.82,1.69-1.53,2.67-2.11.98-.58,2.06-1.05,3.23-1.39,1.17-.34,2.33-.52,3.5-.52s2.23.16,3.19.48l-.32,7.73c-.58-.16-1.17-.29-1.75-.4-.58-.11-1.17-.16-1.75-.16-3.5,0-6.19.98-8.04,2.95-1.86,1.97-2.79,5.02-2.79,9.16v18.96h-7.17V22.46Z"/>
      <path class="cls-1" d="M448.88,43.96c0,1.65.36,3.15,1.08,4.5s1.66,2.51,2.83,3.46c1.17.96,2.52,1.7,4.06,2.23,1.54.53,3.13.8,4.78.8,2.23,0,4.17-.52,5.81-1.55,1.65-1.04,3.16-2.4,4.54-4.1l5.42,4.14c-3.98,5.15-9.56,7.73-16.73,7.73-2.97,0-5.67-.5-8.08-1.51-2.42-1.01-4.46-2.4-6.13-4.18-1.67-1.78-2.96-3.88-3.86-6.29-.9-2.42-1.35-5.03-1.35-7.85s.49-5.43,1.47-7.84c.98-2.42,2.34-4.51,4.06-6.29,1.73-1.78,3.78-3.17,6.17-4.18,2.39-1.01,4.99-1.51,7.81-1.51,3.34,0,6.17.58,8.48,1.75,2.31,1.17,4.21,2.7,5.7,4.58,1.49,1.89,2.56,4.01,3.23,6.37.66,2.36,1,4.77,1,7.21v2.55h-30.26ZM471.5,38.23c-.05-1.59-.31-3.05-.76-4.38-.45-1.33-1.13-2.48-2.03-3.46-.9-.98-2.03-1.75-3.38-2.31-1.35-.56-2.93-.84-4.74-.84s-3.36.33-4.82,1c-1.46.66-2.7,1.53-3.7,2.59-1.01,1.06-1.79,2.24-2.35,3.54-.56,1.3-.84,2.59-.84,3.86h22.62Z"/>
      <path class="cls-1" d="M493.4,60.69c-1.43,0-2.67-.52-3.7-1.55s-1.55-2.27-1.55-3.7.52-2.67,1.55-3.7c1.04-1.04,2.27-1.55,3.7-1.55s2.67.52,3.7,1.55c1.04,1.04,1.55,2.27,1.55,3.7s-.52,2.67-1.55,3.7c-1.04,1.04-2.27,1.55-3.7,1.55Z"/>
    </g>
  </g>
</svg>